<?xml version="1.0" standalone="no"?><!DOCTYPE svg PUBLIC "-//W3C//DTD SVG 1.1//EN" "http://www.w3.org/Graphics/SVG/1.1/DTD/svg11.dtd"><svg t="1594776757347" class="icon" viewBox="0 0 1024 1024" version="1.1" xmlns="http://www.w3.org/2000/svg" p-id="1741" xmlns:xlink="http://www.w3.org/1999/xlink" width="200" height="200"><defs><style type="text/css"></style></defs><path d="M719.4624 896.2048c-10.4448 0-20.6848-2.4576-30.3104-7.5776l-166.912-87.6544a21.7088 21.7088 0 0 0-20.0704 0l-166.912 87.8592a64.9216 64.9216 0 0 1-68.608-4.9152 64.96256 64.96256 0 0 1-26.0096-63.6928l31.9488-185.7536c1.2288-6.9632-1.2288-14.1312-6.144-19.2512L131.072 483.328a65.16736 65.16736 0 0 1 36.0448-111.2064l186.5728-27.0336c6.9632-1.024 13.1072-5.5296 16.384-11.8784l83.3536-169.1648a64.73728 64.73728 0 0 1 58.368-36.2496c24.9856 0 47.3088 13.9264 58.368 36.2496l83.5584 169.1648c3.072 6.3488 9.216 10.8544 16.384 11.8784l186.5728 27.0336c24.7808 3.6864 44.8512 20.48 52.6336 44.4416 7.7824 23.7568 1.4336 49.3568-16.5888 66.7648L757.76 615.0144c-5.12 4.9152-7.3728 12.0832-6.144 19.2512l31.9488 185.7536c4.3008 24.576-5.7344 48.9472-26.0096 63.6928-11.4688 8.192-24.7808 12.4928-38.0928 12.4928zM512 171.2128c-8.3968 0-15.7696 4.5056-19.456 12.0832l-83.3536 169.1648c-9.4208 19.2512-27.8528 32.5632-49.152 35.6352l-186.5728 27.0336c-8.3968 1.2288-14.9504 6.7584-17.408 14.7456-2.6624 7.9872-0.6144 16.384 5.5296 22.1184l134.9632 131.6864c15.36 14.9504 22.3232 36.4544 18.8416 57.7536l-31.9488 185.9584c-1.4336 8.3968 1.8432 16.1792 8.6016 21.0944 6.7584 4.9152 15.36 5.5296 22.7328 1.6384l166.912-87.6544c19.0464-10.0352 41.5744-10.0352 60.6208 0l166.912 87.6544c7.5776 3.8912 15.9744 3.2768 22.7328-1.6384 6.7584-4.9152 10.0352-12.9024 8.6016-21.0944l-31.9488-185.7536c-3.6864-21.0944 3.4816-42.8032 18.8416-57.7536l134.9632-131.6864c5.9392-5.9392 7.9872-14.1312 5.5296-22.1184s-9.216-13.5168-17.408-14.7456l-186.5728-27.0336a65.3312 65.3312 0 0 1-49.152-35.6352l-83.5584-169.1648c-3.4816-7.7824-10.8544-12.288-19.2512-12.288z" p-id="1742" fill="#faa6b8"></path></svg>