<?xml version="1.0" standalone="no"?><!DOCTYPE svg PUBLIC "-//W3C//DTD SVG 1.1//EN" "http://www.w3.org/Graphics/SVG/1.1/DTD/svg11.dtd"><svg t="1596458718546" class="icon" viewBox="0 0 1024 1024" version="1.1" xmlns="http://www.w3.org/2000/svg" p-id="1650" xmlns:xlink="http://www.w3.org/1999/xlink" width="200" height="200"><defs><style type="text/css"></style></defs><path d="M512 32a181.333333 181.333333 0 0 1 181.034667 170.666667h147.797333l46.442667 789.333333H136.725333l46.442667-789.333333h147.797333A181.333333 181.333333 0 0 1 512 32z m268.501333 234.666667l-87.189333-0.021334L693.333333 362.666667h-64v-96.021334h-234.666666V362.666667h-64v-96.021334l-87.168 0.021334-38.890667 661.333333h614.784l-38.890667-661.333333zM512 96a117.333333 117.333333 0 0 0-116.864 106.666667h233.728A117.333333 117.333333 0 0 0 512 96z" p-id="1651" fill="#fd8d9e"></path></svg>