<?xml version="1.0" standalone="no"?><!DOCTYPE svg PUBLIC "-//W3C//DTD SVG 1.1//EN" "http://www.w3.org/Graphics/SVG/1.1/DTD/svg11.dtd"><svg t="1596440584113" class="icon" viewBox="0 0 1024 1024" version="1.1" xmlns="http://www.w3.org/2000/svg" p-id="2735" xmlns:xlink="http://www.w3.org/1999/xlink" width="200" height="200"><defs><style type="text/css"></style></defs><path d="M712.5 1024H311.5A100 100 0 0 1 211.5 924V100A100 100 0 0 1 311.5 0h401a100 100 0 0 1 100 100v824a100 100 0 0 1-100 100zM311.5 80a20 20 0 0 0-20 20v824a20 20 0 0 0 20 20h401a20 20 0 0 0 20-20V100a20 20 0 0 0-20-20z" fill="#ffffff" p-id="2736"></path><path d="M580.5 170H442.5a40 40 0 0 1 0-80h138a40 40 0 0 1 0 80zM511.5 914a75 75 0 1 1 75-75 75 75 0 0 1-75 75z" fill="#ffffff" p-id="2737"></path></svg>